HIERARCHY
ROOT Hips
{
    OFFSET 13.00174617767334 94.45281600952148 -18.407718658447266
    CHANNELS 6 Xposition Yposition Zposition Zrotation Xrotation Yrotation
    JOINT RightUpLeg
    {
        OFFSET -13.00174617767334 0.0 0.0
        CHANNELS 3 Zrotation Xrotation Yrotation
        JOINT RightLeg
        {
            OFFSET 0.0 -48.43352127075195 0.0
            CHANNELS 3 Zrotation Xrotation Yrotation
            JOINT RightFoot
            {
                OFFSET 0.0 -46.01929473876953 0.0
                CHANNELS 3 Zrotation Xrotation Yrotation
                End Site
                {
                    OFFSET 0.0 0.0 18.407718658447266
                }
            }
        }
    }
    JOINT LeftUpLeg
    {
        OFFSET 13.00174617767334 0.0 0.0
        CHANNELS 3 Zrotation Xrotation Yrotation
        JOINT LeftLeg
        {
            OFFSET 0.0 -48.43352127075195 0.0
            CHANNELS 3 Zrotation Xrotation Yrotation
            JOINT LeftFoot
            {
                OFFSET 0.0 -46.01929473876953 0.0
                CHANNELS 3 Zrotation Xrotation Yrotation
                End Site
                {
                    OFFSET 0.0 0.0 18.407718658447266
                }
            }
        }
    }
    JOINT Spine
    {
        OFFSET 0.0 25.340370178222656 0.0
        CHANNELS 3 Zrotation Xrotation Yrotation
        JOINT Spine3
        {
            OFFSET 0.0 25.669919967651367 0.0
            CHANNELS 3 Zrotation Xrotation Yrotation
            JOINT Neck
            {
                OFFSET 0.0 11.419474601745605 0.0
                CHANNELS 3 Zrotation Xrotation Yrotation
                End Site
                {
                    OFFSET 0.0 4.5677900314331055 0.0
                }
            }
            JOINT LeftArm
            {
                OFFSET 13.669811248779297 0.0 0.0
                CHANNELS 3 Zrotation Xrotation Yrotation
                JOINT LeftForeArm
                {
                    OFFSET 29.090198516845703 0.0 0.0
                    CHANNELS 3 Zrotation Xrotation Yrotation
                    JOINT LeftHand
                    {
                        OFFSET 21.736988067626953 0.0 0.0
                        CHANNELS 3 Zrotation Xrotation Yrotation
                        End Site
                        {
                            OFFSET 8.694795608520508 0.0 0.0
                        }
                    }
                }
            }
            JOINT RightArm
            {
                OFFSET -13.669811248779297 0.0 0.0
                CHANNELS 3 Zrotation Xrotation Yrotation
                JOINT RightForeArm
                {
                    OFFSET -29.090198516845703 0.0 0.0
                    CHANNELS 3 Zrotation Xrotation Yrotation
                    JOINT RightHand
                    {
                        OFFSET -21.736988067626953 0.0 0.0
                        CHANNELS 3 Zrotation Xrotation Yrotation
                        End Site
                        {
                            OFFSET -8.694795608520508 0.0 0.0
                        }
                    }
                }
            }
        }
    }
}
MOTION
Frames: 5
Frame Time: 0.03333333333333333
-2.179560760851018e-05 95.20789337158203 -0.0007451190031133592 -6.733597728629001 -15.902742835779012 -21.58988025407973 7.928515383185991 27.483462597843054 -5.160776845002938 -3.260602768721436 3.2322850448380036 -0.3706237542394857 -4.138037154422024e-33 -1.5902773407317584e-15 -2.981770013872047e-16 7.358992816933132 19.543099098208792 -3.5529453035889755 0.3938547712823429 6.439519568799974 -1.1680892732638863 1.5902773407317584e-15 8.276074308844047e-33 5.963540027744094e-16 -2.4278756942435393 34.02289321047 -0.4048721914939432 -3.836599323068809e-07 1.3080786683825865e-06 3.437286157150312 0.8782505360879586 -4.624337804631274 -170.7724642498796 108.8416577784769 -18.92558013714289 -172.8947940959555 -3.415655034264188e-06 -2.520427889005909e-06 21.41915407042578 9.54166404439055e-15 -2.648343778830095e-31 -3.1805546814635168e-15 -119.34803820993736 -33.66303899180486 166.32053966504162 -1.0557038743478559e-06 -1.296239997107635e-06 -28.51982923590999 -5.565970692561154e-15 3.1805546814635168e-15 1.5448672043175555e-31
-2.337919795536436e-05 95.20787048339844 -0.0007316897390410304 -6.6308058619609795 -15.970046501944243 -21.742485170246557 7.893729125575541 27.534292476791133 -5.216400099793064 -3.508372000003383 3.132631192271815 -0.35005200149523624 -7.95138670365879e-16 -1.0345092886055059e-32 1.4908850069360232e-15 7.073376043326278 19.662311183639392 -3.5208324777399405 0.7850587371423725 6.467562194294492 -1.2011318195540261 -6.896728590703373e-33 1.5902773407317588e-15 4.969616689786746e-16 -2.4318903817150512 34.147988670366715 -0.47865831813462156 -1.7656251167157904e-07 1.7528040512967389e-06 3.2933684697250425 0.8988838555998735 -4.61324570833525 -170.82662557762526 109.17548755075967 -20.10644017743806 -172.58468991280844 -1.8951345156017456e-06 -3.4170935840144206e-06 22.141780400824867 0.0 0.0 0.0 -119.02971382480241 -33.40375160134412 166.35248527846062 -4.342500649712249e-06 -4.26285126918029e-07 -29.199827080915792 5.963540027744096e-16 -1.6552148617688095e-32 -3.1805546814635176e-15
-3.1429477530764416e-05 95.20785522460938 -0.0007210035691969097 -6.348781405621756 -15.907987044172094 -21.571866783524232 7.883305566526255 27.40376574466189 -5.226821556476475 -3.692063047593014 3.132161865546757 -0.34391014654123503 -7.95138670365879e-16 -1.3793457181406746e-32 1.9878466759146976e-15 6.864309972718709 19.398916304482487 -3.4314998663130667 0.9209740143093018 6.548810969634495 -1.2197566565709321 -6.034637516865451e-33 1.9878466759146975e-16 3.4787316828507206e-15 -2.285889981960931 34.19456829780419 -0.6063606639641885 -2.1832175904816343e-08 7.016514571509554e-07 3.1075866688253098 0.5291220684405713 -4.724928035710872 -171.63328304987698 110.02692808572672 -22.317046433843153 -172.1219827800108 -4.8373272637706295e-06 2.2652359649606293e-06 22.977710584801503 3.1805546814635164e-15 1.7655625192200634e-31 6.361109362927033e-15 -118.9129025645659 -33.33908829550466 166.35058083331782 3.330333401162931e-06 2.5535132316158163e-06 -29.793656542968513 -1.3914926731402886e-15 3.862168010793889e-32 -3.1805546814635168e-15
-4.1464729292783886e-05 95.20784759521484 -0.0007272749207913876 -6.2982194234782245 -15.791244804673651 -21.75333307243429 7.5891982361794605 27.303332323972622 -5.053861996660961 -3.255040065698131 2.9291824986607304 -0.3296675654435236 -7.951386703658792e-16 1.7890620083232284e-15 6.957463365701443e-16 6.76302462220188 19.30542823520689 -3.3694013829391705 1.1162702838339384 6.551619461713342 -1.2288580397291278 -1.5902773407317582e-15 -1.987846675914698e-16 2.6835930124848418e-15 -2.1032903771216596 34.319319604437986 -0.6916923717672823 1.6374897847543734e-07 -3.018351898204819e-07 2.954875806167696 0.5770505737999434 -4.963071894780179 -171.76283396586527 110.57176125925564 -23.47171726770962 -171.78266179474477 1.040408305393646e-06 1.2425626373006733e-06 23.436334407229243 -7.95138670365879e-15 -3.1805546814635164e-15 3.1805546814635156e-15 -118.34352772189649 -32.584578827593624 166.49180507744762 -1.4163586351166969e-06 8.096427357270432e-07 -30.2615795968528 -9.14409470920761e-15 0.0 0.0
-5.554284143727273e-05 95.20785522460938 -0.0007171209435909986 -6.106003188684162 -15.481516594984246 -21.91102725197613 7.297142370471831 26.948085029943325 -4.8377161705947875 -3.1994958622722316 2.9695649632574845 -0.3231921035204365 0.0 0.0 -1.7890620083232284e-15 6.575823870930056 18.975327664372497 -3.2373731441473295 1.1655954322315487 6.606269543312733 -1.221458738497034 -1.5902773407317584e-15 -1.7890620083232284e-15 -1.5902773407317584e-15 -1.681821379942425 34.28685778059277 -0.9049376007141943 -4.036909223471704e-07 -2.2861400225511785e-07 2.7112741800009537 0.3691294580236654 -4.927316268735282 -171.74801945666866 110.98154863296428 -24.347949330990794 -171.74244224586607 -3.761216866188687e-06 5.582611704805277e-07 23.8161918592846 6.361109362927032e-15 0.0 0.0 -118.45465438872168 -33.176916273280824 166.70835979902233 -6.743212802390562e-07 5.439671498279228e-07 -31.260654986222388 1.5902773407317584e-15 3.1805546814635164e-15 -3.1805546814635164e-15
